<svg width="331" height="403" viewBox="0 0 331 403" fill="none" xmlns="http://www.w3.org/2000/svg">
<rect x="88" width="76" height="57" fill="#7BCAF1"/>
<rect x="88" y="82" width="76" height="57" fill="#7BCAF1"/>
<rect x="88" y="164" width="76" height="57" fill="#7BCAF1"/>
<rect x="88" y="246" width="76" height="57" fill="#7BCAF1"/>
<rect x="88" y="328" width="76" height="57" fill="#7BCAF1"/>
<rect x="88" y="62" width="65" height="5" fill="#D0DCE7"/>
<rect x="88" y="144" width="65" height="5" fill="#D0DCE7"/>
<rect x="88" y="226" width="65" height="5" fill="#D0DCE7"/>
<rect x="88" y="308" width="65" height="5" fill="#D0DCE7"/>
<rect x="88" y="390" width="65" height="5" fill="#D0DCE7"/>
<rect x="171" y="62" width="65" height="5" fill="#D0DCE7"/>
<rect x="171" y="144" width="65" height="5" fill="#D0DCE7"/>
<rect x="171" y="226" width="65" height="5" fill="#D0DCE7"/>
<rect x="171" y="308" width="65" height="5" fill="#D0DCE7"/>
<rect x="171" y="390" width="65" height="5" fill="#D0DCE7"/>
<rect x="255" y="62" width="65" height="5" fill="#D0DCE7"/>
<rect x="255" y="144" width="65" height="5" fill="#D0DCE7"/>
<rect x="255" y="226" width="65" height="5" fill="#D0DCE7"/>
<rect x="255" y="308" width="65" height="5" fill="#D0DCE7"/>
<rect x="255" y="390" width="65" height="5" fill="#D0DCE7"/>
<rect x="88" y="70" width="18" height="5" fill="#D0DCE7"/>
<rect x="88" y="152" width="18" height="5" fill="#D0DCE7"/>
<rect x="88" y="234" width="18" height="5" fill="#D0DCE7"/>
<rect x="88" y="316" width="18" height="5" fill="#D0DCE7"/>
<rect x="88" y="398" width="18" height="5" fill="#D0DCE7"/>
<rect x="171" y="70" width="18" height="5" fill="#D0DCE7"/>
<rect x="171" y="152" width="18" height="5" fill="#D0DCE7"/>
<rect x="171" y="234" width="18" height="5" fill="#D0DCE7"/>
<rect x="171" y="316" width="18" height="5" fill="#D0DCE7"/>
<rect x="171" y="398" width="18" height="5" fill="#D0DCE7"/>
<rect x="255" y="70" width="18" height="5" fill="#D0DCE7"/>
<rect x="255" y="152" width="18" height="5" fill="#D0DCE7"/>
<rect x="255" y="234" width="18" height="5" fill="#D0DCE7"/>
<rect x="255" y="316" width="18" height="5" fill="#D0DCE7"/>
<rect x="255" y="398" width="18" height="5" fill="#D0DCE7"/>
<rect x="171" width="77" height="57" fill="#7BCAF1"/>
<rect x="171" y="82" width="77" height="57" fill="#7BCAF1"/>
<rect x="171" y="164" width="77" height="57" fill="#7BCAF1"/>
<rect x="171" y="246" width="77" height="57" fill="#7BCAF1"/>
<rect x="171" y="328" width="77" height="57" fill="#7BCAF1"/>
<rect x="255" width="76" height="57" fill="#7BCAF1"/>
<rect x="255" y="82" width="76" height="57" fill="#7BCAF1"/>
<rect x="255" y="164" width="76" height="57" fill="#7BCAF1"/>
<rect x="255" y="246" width="76" height="57" fill="#7BCAF1"/>
<rect x="255" y="328" width="76" height="57" fill="#7BCAF1"/>
<rect y="1" width="68" height="8" fill="#A9DEF9"/>
<rect y="16" width="42" height="5" fill="#D0DCE7"/>
<rect y="27" width="57" height="5" fill="#D0DCE7"/>
<rect y="38" width="38" height="5" fill="#D0DCE7"/>
<rect y="49" width="51" height="5" fill="#D0DCE7"/>
<rect y="60" width="56" height="5" fill="#D0DCE7"/>
<rect y="71" width="40" height="5" fill="#D0DCE7"/>
<rect y="82" width="45" height="5" fill="#D0DCE7"/>
<rect y="93" width="51" height="5" fill="#D0DCE7"/>
<rect y="104" width="55" height="5" fill="#D0DCE7"/>
<rect y="115" width="51" height="5" fill="#D0DCE7"/>
<rect y="126" width="41" height="5" fill="#D0DCE7"/>
<rect y="137" width="51" height="5" fill="#D0DCE7"/>
<rect y="148" width="30" height="5" fill="#D0DCE7"/>
</svg>
