<svg width="20" height="20" viewBox="0 0 20 20" fill="none" xmlns="http://www.w3.org/2000/svg">
<path d="M14.0419 0H5.9581C2.6728 0 0 2.6728 0 5.9581V14.0419C0 17.3272 2.6728 20 5.9581 20H14.0419C17.3272 20 20 17.3272 20 14.0419V5.9581C20 2.6728 17.3272 0 14.0419 0ZM17.988 14.0419C17.988 16.2213 16.2213 17.988 14.0419 17.988H5.9581C3.7788 17.988 2.012 16.2213 2.012 14.0419V5.9581C2.012 3.7787 3.7788 2.012 5.9581 2.012H14.0419C16.2213 2.012 17.988 3.7787 17.988 5.9581V14.0419Z" fill="#2E3646"/>
<path d="M10 4.82764C7.1477 4.82764 4.8273 7.14814 4.8273 10.0003C4.8273 12.8525 7.1477 15.173 10 15.173C12.8522 15.173 15.1727 12.8525 15.1727 10.0003C15.1727 7.14804 12.8522 4.82764 10 4.82764ZM10 13.161C8.2544 13.161 6.8393 11.7459 6.8393 10.0003C6.8393 8.25474 8.2544 6.83964 10 6.83964C11.7456 6.83964 13.1607 8.25474 13.1607 10.0003C13.1607 11.7459 11.7456 13.161 10 13.161Z" fill="#2E3646"/>
<path d="M15.1827 6.10546C15.8673 6.10546 16.4222 5.55046 16.4222 4.86596C16.4222 4.18136 15.8673 3.62646 15.1827 3.62646C14.4982 3.62646 13.9432 4.18136 13.9432 4.86596C13.9432 5.55046 14.4982 6.10546 15.1827 6.10546Z" fill="#2E3646"/>
</svg>
