<?xml version="1.0" standalone="no"?>
<!DOCTYPE svg PUBLIC "-//W3C//DTD SVG 20010904//EN" "http://www.w3.org/TR/2001/REC-SVG-20010904/DTD/svg10.dtd">
<svg version="1.0" xmlns="http://www.w3.org/2000/svg" width="700.000000pt" height="700.000000pt" viewBox="0 0 700.000000 700.000000" preserveAspectRatio="xMidYMid meet">
<metadata>
Created by potrace 1.11, written by Peter Selinger 2001-2013
</metadata>
<g transform="translate(0.000000,700.000000) scale(0.100000,-0.100000)"
fill="#000000" stroke="none">
<path d="M1250 6266 l0 -735 2205 0 2205 1 1 31 c0 18 1 347 1 732 l1 700
-2207 3 -2206 2 0 -734z"/>
<path d="M1260 2319 c0 -1231 3 -2239 8 -2240 4 0 310 -1 680 -1 470 -1 676 2
680 9 4 6 7 396 6 867 l-1 856 822 0 822 0 -1 -861 c-1 -512 3 -863 8 -867 5
-3 313 -5 685 -5 l676 0 3 2241 2 2240 -687 -1 -686 -2 0 -847 0 -848 -26 -1
c-14 0 -384 -2 -822 -2 l-796 -2 0 815 c-1 448 -2 832 -2 852 l-1 36 -685 0
-685 0 0 -2239z"/>
</g>
</svg>
