<svg xmlns="http://www.w3.org/2000/svg">

  <!-- logo -->
  <symbol id="logo" viewBox="0 0 135 43">
    <path d="M15.9855 42.5231H7.55533V21.4253H0V14.9967H23.5408V21.4253H15.9855V42.5231ZM25.9221 34.1871H33.6763C33.9944 35.8467 36.0025 36.8005 38.3884 36.8005C40.9135 36.8005 42.4643 35.8086 42.4643 34.4542C42.4643 33.157 41.3509 32.6038 38.1299 32.0506L35.247 31.5547C29.5407 30.5818 26.4192 27.8158 26.4192 23.5429C26.4192 18.0109 31.3898 14.52 38.2095 14.52C45.8841 14.52 50.1787 17.9346 50.2185 23.3712H42.4643C42.4047 21.6925 40.6153 20.7196 38.3089 20.7196C35.9628 20.7196 34.7698 21.7116 34.7698 22.9515C34.7698 24.1914 36.0025 24.7828 38.8656 25.2787L41.7486 25.7747C47.9121 26.843 50.8149 29.2656 50.8149 33.7293C50.8149 39.3948 46.2022 43.0001 38.289 43.0001C30.853 43.0001 25.942 39.8145 25.9221 34.1871ZM74.4903 36.0945V42.5231H54.25V14.9967H74.4903V21.4253H62.6802V25.8699H73.7547V31.669H62.6802V36.0945H74.4903ZM87.1509 42.5231H78.7207V14.9967H87.1509V26.6711H87.3099L96.1775 14.9967H105.025L95.581 27.2243L105.463 42.5231H95.6606L89.3976 32.4129L87.1509 35.3124V42.5231ZM134.705 42.5231H126.275V31.8788H116.175V42.5231H107.745V14.9967H116.175V25.4503H126.275V14.9967H134.705V42.5231Z" fill="#333333"/>
    <path d="M107.669 0H134.785V9.0155H107.669V0Z" fill="#3454F5"/>
  </symbol>
  <!-- / logo -->

  <!-- logo-nofill -->
  <symbol id="logo-nofill" viewBox="0 0 135 43">
    <path d="M15.9855 42.5231H7.55533V21.4253H0V14.9967H23.5408V21.4253H15.9855V42.5231ZM25.9221 34.1871H33.6763C33.9944 35.8467 36.0025 36.8005 38.3884 36.8005C40.9135 36.8005 42.4643 35.8086 42.4643 34.4542C42.4643 33.157 41.3509 32.6038 38.1299 32.0506L35.247 31.5547C29.5407 30.5818 26.4192 27.8158 26.4192 23.5429C26.4192 18.0109 31.3898 14.52 38.2095 14.52C45.8841 14.52 50.1787 17.9346 50.2185 23.3712H42.4643C42.4047 21.6925 40.6153 20.7196 38.3089 20.7196C35.9628 20.7196 34.7698 21.7116 34.7698 22.9515C34.7698 24.1914 36.0025 24.7828 38.8656 25.2787L41.7486 25.7747C47.9121 26.843 50.8149 29.2656 50.8149 33.7293C50.8149 39.3948 46.2022 43.0001 38.289 43.0001C30.853 43.0001 25.942 39.8145 25.9221 34.1871ZM74.4903 36.0945V42.5231H54.25V14.9967H74.4903V21.4253H62.6802V25.8699H73.7547V31.669H62.6802V36.0945H74.4903ZM87.1509 42.5231H78.7207V14.9967H87.1509V26.6711H87.3099L96.1775 14.9967H105.025L95.581 27.2243L105.463 42.5231H95.6606L89.3976 32.4129L87.1509 35.3124V42.5231ZM134.705 42.5231H126.275V31.8788H116.175V42.5231H107.745V14.9967H116.175V25.4503H126.275V14.9967H134.705V42.5231Z"/>
    <path d="M107.669 0H134.785V9.0155H107.669V0Z"/>
  </symbol>
  <!-- / logo-nofill -->

  <!-- icon-arrow -->
  <symbol id="icon-arrow" viewBox="0 0 50 111">
    <path d="M27.7774 11.1656V110.622H22.2219V11.1656L4.74131 28.5097L0.813538 24.6126L24.9996 0.615234L49.1858 24.6126L45.258 28.5097L27.7774 11.1656Z" fill="white"/>
  </symbol>
  <!-- / icon-arrow -->

  <!-- catalog -->
  <symbol id="catalog" viewBox="0 0 331 403">
    <rect x="88" width="76" height="57" fill="#7BCAF1"/>
    <rect x="88" y="82" width="76" height="57" fill="#7BCAF1"/>
    <rect x="88" y="164" width="76" height="57" fill="#7BCAF1"/>
    <rect x="88" y="246" width="76" height="57" fill="#7BCAF1"/>
    <rect x="88" y="328" width="76" height="57" fill="#7BCAF1"/>
    <rect x="88" y="62" width="65" height="5" fill="#D0DCE7"/>
    <rect x="88" y="144" width="65" height="5" fill="#D0DCE7"/>
    <rect x="88" y="226" width="65" height="5" fill="#D0DCE7"/>
    <rect x="88" y="308" width="65" height="5" fill="#D0DCE7"/>
    <rect x="88" y="390" width="65" height="5" fill="#D0DCE7"/>
    <rect x="171" y="62" width="65" height="5" fill="#D0DCE7"/>
    <rect x="171" y="144" width="65" height="5" fill="#D0DCE7"/>
    <rect x="171" y="226" width="65" height="5" fill="#D0DCE7"/>
    <rect x="171" y="308" width="65" height="5" fill="#D0DCE7"/>
    <rect x="171" y="390" width="65" height="5" fill="#D0DCE7"/>
    <rect x="255" y="62" width="65" height="5" fill="#D0DCE7"/>
    <rect x="255" y="144" width="65" height="5" fill="#D0DCE7"/>
    <rect x="255" y="226" width="65" height="5" fill="#D0DCE7"/>
    <rect x="255" y="308" width="65" height="5" fill="#D0DCE7"/>
    <rect x="255" y="390" width="65" height="5" fill="#D0DCE7"/>
    <rect x="88" y="70" width="18" height="5" fill="#D0DCE7"/>
    <rect x="88" y="152" width="18" height="5" fill="#D0DCE7"/>
    <rect x="88" y="234" width="18" height="5" fill="#D0DCE7"/>
    <rect x="88" y="316" width="18" height="5" fill="#D0DCE7"/>
    <rect x="88" y="398" width="18" height="5" fill="#D0DCE7"/>
    <rect x="171" y="70" width="18" height="5" fill="#D0DCE7"/>
    <rect x="171" y="152" width="18" height="5" fill="#D0DCE7"/>
    <rect x="171" y="234" width="18" height="5" fill="#D0DCE7"/>
    <rect x="171" y="316" width="18" height="5" fill="#D0DCE7"/>
    <rect x="171" y="398" width="18" height="5" fill="#D0DCE7"/>
    <rect x="255" y="70" width="18" height="5" fill="#D0DCE7"/>
    <rect x="255" y="152" width="18" height="5" fill="#D0DCE7"/>
    <rect x="255" y="234" width="18" height="5" fill="#D0DCE7"/>
    <rect x="255" y="316" width="18" height="5" fill="#D0DCE7"/>
    <rect x="255" y="398" width="18" height="5" fill="#D0DCE7"/>
    <rect x="171" width="77" height="57" fill="#7BCAF1"/>
    <rect x="171" y="82" width="77" height="57" fill="#7BCAF1"/>
    <rect x="171" y="164" width="77" height="57" fill="#7BCAF1"/>
    <rect x="171" y="246" width="77" height="57" fill="#7BCAF1"/>
    <rect x="171" y="328" width="77" height="57" fill="#7BCAF1"/>
    <rect x="255" width="76" height="57" fill="#7BCAF1"/>
    <rect x="255" y="82" width="76" height="57" fill="#7BCAF1"/>
    <rect x="255" y="164" width="76" height="57" fill="#7BCAF1"/>
    <rect x="255" y="246" width="76" height="57" fill="#7BCAF1"/>
    <rect x="255" y="328" width="76" height="57" fill="#7BCAF1"/>
    <rect y="1" width="68" height="8" fill="#A9DEF9"/>
    <rect y="16" width="42" height="5" fill="#D0DCE7"/>
    <rect y="27" width="57" height="5" fill="#D0DCE7"/>
    <rect y="38" width="38" height="5" fill="#D0DCE7"/>
    <rect y="49" width="51" height="5" fill="#D0DCE7"/>
    <rect y="60" width="56" height="5" fill="#D0DCE7"/>
    <rect y="71" width="40" height="5" fill="#D0DCE7"/>
    <rect y="82" width="45" height="5" fill="#D0DCE7"/>
    <rect y="93" width="51" height="5" fill="#D0DCE7"/>
    <rect y="104" width="55" height="5" fill="#D0DCE7"/>
    <rect y="115" width="51" height="5" fill="#D0DCE7"/>
    <rect y="126" width="41" height="5" fill="#D0DCE7"/>
    <rect y="137" width="51" height="5" fill="#D0DCE7"/>
    <rect y="148" width="30" height="5" fill="#D0DCE7"/>
  </symbol>
  <!-- / catalog -->

  <!-- logo-elasticsearch -->
  <symbol id="logo-elasticsearch" viewBox="0 0 233 46">
    <path d="M62.1347 29.8409C59.821 29.8409 58.0175 29.1667 56.7059 27.8187C55.3941 26.4705 54.7565 24.6123 54.7565 22.244C54.7565 19.821 55.3577 17.9081 56.5782 16.5236C57.7805 15.139 59.4566 14.4467 61.5699 14.4467C63.5375 14.4467 65.0859 15.0479 66.2154 16.232C67.3449 17.4161 67.9279 19.074 67.9279 21.1509V22.8633H58.0175C58.054 24.3026 58.4547 25.4139 59.1834 26.1972C59.9121 26.9807 60.9506 27.3633 62.2986 27.3633C63.1731 27.3633 63.9929 27.2721 64.758 27.1081C65.5231 26.9442 66.3248 26.6709 67.1991 26.2883V28.857C66.434 29.2215 65.6506 29.4765 64.8673 29.6405C64.0475 29.7679 63.1549 29.8409 62.1347 29.8409ZM61.5699 16.8332C60.568 16.8332 59.7664 17.143 59.147 17.7806C58.5458 18.4182 58.1816 19.3473 58.0722 20.5678H64.831C64.8127 19.3473 64.5213 18.4182 63.9383 17.7806C63.3552 17.143 62.572 16.8332 61.5699 16.8332Z" fill="black"/>
    <path d="M74.6703 29.5855H71.5185V8.65344H74.6703V29.5855Z" fill="black"/>
    <path d="M88.4954 29.5856L87.8577 27.5088H87.7485C87.038 28.4198 86.3093 29.039 85.5805 29.367C84.8518 29.6948 83.9228 29.8589 82.775 29.8589C81.3176 29.8589 80.1699 29.4581 79.35 28.6748C78.5302 27.8915 78.1111 26.7618 78.1111 25.3227C78.1111 23.7923 78.6759 22.6264 79.8236 21.8614C80.9532 21.0779 82.702 20.6589 85.0339 20.5861L87.6027 20.5132V19.7116C87.6027 18.7643 87.3841 18.0537 86.9286 17.5801C86.4913 17.1065 85.7991 16.8696 84.87 16.8696C84.1049 16.8696 83.3761 16.9789 82.6838 17.1975C81.9916 17.4161 81.3176 17.6894 80.6617 17.9992L79.6415 15.7401C80.4431 15.3211 81.3358 14.9932 82.2831 14.7746C83.2485 14.556 84.1412 14.4468 84.9975 14.4468C86.8921 14.4468 88.3132 14.8658 89.2787 15.6856C90.2441 16.5054 90.7179 17.7989 90.7179 19.566V29.5857H88.4954V29.5856ZM83.7952 27.4176C84.943 27.4176 85.8721 27.0898 86.5644 26.4522C87.2566 25.8145 87.6028 24.9036 87.6028 23.756V22.4625L85.6899 22.5354C84.196 22.5901 83.1211 22.8451 82.447 23.2823C81.773 23.7197 81.4269 24.4118 81.4269 25.3227C81.4269 25.9786 81.6273 26.5068 82.0098 26.8713C82.4106 27.2536 83.0119 27.4176 83.7952 27.4176Z" fill="black"/>
    <path d="M105.164 25.3408C105.164 26.7983 104.636 27.9095 103.58 28.6746C102.523 29.4579 101.011 29.8407 99.0252 29.8407C97.0395 29.8407 95.4545 29.549 94.2521 28.9479V26.2152C96.0011 27.0168 97.6225 27.4175 99.1345 27.4175C101.084 27.4175 102.049 26.8345 102.049 25.6504C102.049 25.2679 101.94 24.9581 101.721 24.7032C101.503 24.448 101.157 24.193 100.665 23.9197C100.173 23.6466 99.4806 23.355 98.6063 23.0089C96.8938 22.353 95.7278 21.6789 95.1267 21.0231C94.5255 20.3672 94.2158 19.4928 94.2158 18.4361C94.2158 17.1609 94.7259 16.1771 95.7643 15.4666C96.7845 14.7562 98.1872 14.41 99.9544 14.41C101.703 14.41 103.361 14.7562 104.91 15.4666L103.889 17.8532C102.286 17.1974 100.938 16.8512 99.8451 16.8512C98.169 16.8512 97.3492 17.3248 97.3492 18.2722C97.3492 18.7459 97.5679 19.1284 98.005 19.4563C98.4422 19.7842 99.3895 20.2214 100.847 20.7863C102.068 21.2599 102.96 21.6972 103.525 22.098C104.09 22.4988 104.49 22.9541 104.764 23.4642C105.019 24.011 105.164 24.6303 105.164 25.3408Z" fill="black"/>
    <path d="M114.13 27.2904C114.895 27.2904 115.678 27.1628 116.443 26.926V29.3125C116.097 29.4582 115.642 29.5858 115.095 29.6951C114.549 29.8043 113.966 29.8409 113.383 29.8409C110.395 29.8409 108.883 28.2559 108.883 25.1042V17.0883H106.861V15.7038L109.047 14.5561L110.122 11.4044H112.053V14.72H116.298V17.1065H112.053V25.0678C112.053 25.8329 112.235 26.3977 112.617 26.762C113 27.1081 113.51 27.2904 114.13 27.2904Z" fill="black"/>
    <path d="M119.21 10.7667C119.21 10.2019 119.356 9.76464 119.666 9.45496C119.975 9.14528 120.413 8.99951 120.996 8.99951C121.56 8.99951 121.979 9.14528 122.289 9.45496C122.599 9.76473 122.745 10.2019 122.745 10.7667C122.745 11.3131 122.599 11.7322 122.289 12.0419C121.979 12.3516 121.542 12.4973 120.996 12.4973C120.413 12.4973 119.975 12.3515 119.666 12.0419C119.374 11.7322 119.21 11.295 119.21 10.7667ZM122.562 29.5855H119.411V14.7198H122.562V29.5855Z" fill="black"/>
    <path d="M133.075 29.8408C130.816 29.8408 129.122 29.1849 127.938 27.8731C126.772 26.5615 126.189 24.6669 126.189 22.2256C126.189 19.7297 126.809 17.7987 128.029 16.4505C129.25 15.1024 131.017 14.4283 133.33 14.4283C134.897 14.4283 136.318 14.7198 137.575 15.3027L136.628 17.8533C135.298 17.325 134.187 17.07 133.312 17.07C130.744 17.07 129.45 18.7824 129.45 22.1892C129.45 23.8653 129.778 25.1041 130.416 25.9421C131.053 26.7802 132.001 27.1992 133.239 27.1992C134.642 27.1992 135.972 26.853 137.229 26.1426V28.8935C136.664 29.2214 136.063 29.4581 135.426 29.604C134.77 29.7678 134.004 29.8408 133.075 29.8408Z" fill="black"/>
    <path d="M150.711 25.3408C150.711 26.7983 150.183 27.9095 149.126 28.6746C148.07 29.4579 146.558 29.8407 144.572 29.8407C142.586 29.8407 141.001 29.549 139.799 28.9479V26.2152C141.548 27.0168 143.169 27.4175 144.681 27.4175C146.631 27.4175 147.596 26.8345 147.596 25.6504C147.596 25.2679 147.487 24.9581 147.268 24.7032C147.05 24.448 146.703 24.193 146.212 23.9197C145.72 23.6466 145.028 23.355 144.153 23.0089C142.44 22.353 141.275 21.6789 140.673 21.0231C140.072 20.3672 139.763 19.4928 139.763 18.4361C139.763 17.1609 140.273 16.1771 141.311 15.4666C142.331 14.7562 143.734 14.41 145.501 14.41C147.25 14.41 148.908 14.7562 150.456 15.4666L149.436 17.8532C147.833 17.1974 146.485 16.8512 145.392 16.8512C143.716 16.8512 142.896 17.3248 142.896 18.2722C142.896 18.7459 143.115 19.1284 143.552 19.4563C143.989 19.7842 144.936 20.2214 146.394 20.7863C147.614 21.2599 148.507 21.6972 149.072 22.098C149.637 22.4988 150.037 22.9541 150.311 23.4642C150.584 24.011 150.711 24.6303 150.711 25.3408Z" fill="black"/>
    <path d="M160.619 29.8409C158.306 29.8409 156.502 29.1667 155.191 27.8187C153.879 26.4705 153.241 24.6123 153.241 22.244C153.241 19.821 153.842 17.9081 155.063 16.5236C156.265 15.139 157.941 14.4467 160.055 14.4467C162.022 14.4467 163.571 15.0479 164.7 16.232C165.83 17.4161 166.413 19.074 166.413 21.1509V22.8633H156.502C156.539 24.3026 156.939 25.4139 157.668 26.1972C158.397 26.9807 159.435 27.3633 160.783 27.3633C161.658 27.3633 162.478 27.2721 163.243 27.1081C164.008 26.9442 164.809 26.6709 165.684 26.2883V28.857C164.919 29.2215 164.135 29.4765 163.352 29.6405C162.532 29.7679 161.64 29.8409 160.619 29.8409ZM160.036 16.8332C159.035 16.8332 158.233 17.143 157.614 17.7806C157.012 18.4182 156.648 19.3473 156.539 20.5678H163.297C163.279 19.3473 162.988 18.4182 162.405 17.7806C161.84 17.143 161.057 16.8332 160.036 16.8332Z" fill="black"/>
    <path d="M179.312 29.5856L178.675 27.5088H178.565C177.855 28.4198 177.126 29.039 176.397 29.367C175.669 29.6948 174.739 29.8589 173.592 29.8589C172.134 29.8589 170.986 29.4581 170.167 28.6748C169.347 27.8915 168.928 26.7618 168.928 25.3227C168.928 23.7923 169.493 22.6264 170.64 21.8614C171.77 21.0779 173.519 20.6589 175.851 20.5861L178.419 20.5132V19.7116C178.419 18.7643 178.201 18.0537 177.745 17.5801C177.308 17.1065 176.616 16.8696 175.687 16.8696C174.922 16.8696 174.193 16.9789 173.501 17.1975C172.808 17.4161 172.134 17.6894 171.478 17.9992L170.458 15.7401C171.26 15.3211 172.152 14.9932 173.1 14.7746C174.065 14.556 174.958 14.4468 175.814 14.4468C177.709 14.4468 179.13 14.8658 180.095 15.6856C181.061 16.5054 181.535 17.7989 181.535 19.566V29.5857H179.312V29.5856ZM174.594 27.4176C175.741 27.4176 176.671 27.0898 177.363 26.4522C178.055 25.8145 178.401 24.9036 178.401 23.756V22.4625L176.488 22.5354C174.995 22.5901 173.92 22.8451 173.246 23.2823C172.572 23.7197 172.225 24.4118 172.225 25.3227C172.225 25.9786 172.426 26.5068 172.808 26.8713C173.209 27.2536 173.81 27.4176 174.594 27.4176Z" fill="black"/>
    <path d="M193.521 14.4285C194.159 14.4285 194.687 14.4648 195.088 14.5559L194.778 17.5072C194.323 17.3979 193.868 17.3433 193.376 17.3433C192.119 17.3433 191.08 17.7623 190.297 18.5821C189.514 19.4019 189.113 20.4767 189.113 21.7884V29.5675H185.961V14.7016H188.439L188.858 17.3249H189.022C189.514 16.4323 190.151 15.74 190.953 15.2117C191.754 14.7017 192.611 14.4285 193.521 14.4285Z" fill="black"/>
    <path d="M203.851 29.8408C201.592 29.8408 199.897 29.1849 198.713 27.8731C197.547 26.5615 196.964 24.6669 196.964 22.2256C196.964 19.7297 197.584 17.7987 198.804 16.4505C200.025 15.1024 201.792 14.4283 204.106 14.4283C205.672 14.4283 207.093 14.7198 208.35 15.3027L207.403 17.8533C206.073 17.325 204.962 17.07 204.088 17.07C201.519 17.07 200.225 18.7824 200.225 22.1892C200.225 23.8653 200.553 25.1041 201.191 25.9421C201.828 26.7802 202.776 27.1992 204.015 27.1992C205.417 27.1992 206.747 26.853 208.004 26.1426V28.8935C207.44 29.2214 206.838 29.4581 206.201 29.604C205.545 29.7678 204.762 29.8408 203.851 29.8408Z" fill="black"/>
    <path d="M224.565 29.5855H221.395V20.4403C221.395 19.2925 221.158 18.4363 220.703 17.8716C220.248 17.3068 219.501 17.0154 218.499 17.0154C217.169 17.0154 216.203 17.4162 215.566 18.1995C214.946 19.0011 214.636 20.3309 214.636 22.1892V29.5674H211.485V8.65344H214.636V13.973C214.636 14.8293 214.582 15.7401 214.473 16.7057H214.673C215.11 15.9952 215.693 15.4304 216.477 15.0296C217.242 14.6288 218.134 14.4467 219.155 14.4467C222.762 14.4467 224.565 16.2685 224.565 19.8938V29.5855Z" fill="black"/>
    <path d="M32.6038 16.1046H20.5982C20.6893 16.3779 20.7621 16.6511 20.835 16.9244C21.2176 18.309 21.4727 19.73 21.582 21.2057C21.6184 21.7886 21.6548 22.3898 21.6548 22.991C21.6548 23.5922 21.6366 24.1933 21.582 24.7764C21.4727 26.252 21.2176 27.6728 20.835 29.0575C20.7621 29.3308 20.6711 29.6041 20.5982 29.8772H32.6038C36.3749 29.8772 39.4355 26.7986 39.4536 23.0092C39.4536 19.2016 36.3931 16.1046 32.6038 16.1046Z" fill="#00A9E5"/>
    <path d="M21.6017 24.7764C21.6381 24.1933 21.6746 23.5922 21.6746 22.991C21.6746 22.3898 21.6564 21.7886 21.6017 21.2057C21.4924 19.7301 21.2373 18.309 20.8548 16.9244C20.782 16.6511 20.6909 16.3779 20.618 16.1046H2.05401C1.37998 18.2725 0.997406 20.5862 0.997406 22.991C0.997406 25.3956 1.36167 27.7094 2.05401 29.8772H20.5998C20.6909 29.6041 20.7637 29.3308 20.8366 29.0575C21.2373 27.6728 21.4924 26.252 21.6017 24.7764Z" fill="#353535"/>
    <path d="M34.7012 32.1727H19.7625C19.3071 33.1929 18.7971 34.1766 18.214 35.1239C17.3396 36.5268 16.3193 37.8384 15.1534 39.0226C14.7709 39.4233 14.3701 39.7877 13.9693 40.1704C13.1495 40.899 12.2751 41.5731 11.346 42.1742C14.9714 44.5608 19.3072 45.9635 23.9709 45.9635C31.9321 45.9635 38.946 41.9009 43.0632 35.7434C40.9498 33.539 37.9803 32.1727 34.7012 32.1727Z" fill="#00BFB3"/>
    <path d="M18.1952 35.1057C18.7781 34.1765 19.3066 33.1928 19.7438 32.1545H2.92877C4.71407 36.2352 7.66539 39.7147 11.3454 42.1377C12.2745 41.5366 13.1489 40.8624 13.9687 40.1337C14.3877 39.7694 14.7703 39.3869 15.1528 38.9861C16.3006 37.8201 17.3208 36.5268 18.1952 35.1057Z" fill="#019B8F"/>
    <path d="M15.1529 6.97757C14.7704 6.57678 14.3696 6.21243 13.9689 5.82977C13.149 5.10107 12.2746 4.42704 11.3455 3.82581C7.64738 6.24878 4.71428 9.72835 2.92889 13.8092H19.7622C19.3067 12.7889 18.7967 11.8052 18.2136 10.8578C17.3209 9.4552 16.3007 8.16172 15.1529 6.97757Z" fill="#F9B110"/>
    <path d="M23.9701 0.0366211C19.3064 0.0366211 14.9705 1.43943 11.3452 3.82587C12.2743 4.4271 13.1487 5.10114 13.9685 5.82984C14.3875 6.19419 14.7701 6.57676 15.1526 6.97763C16.3004 8.1617 17.3205 9.45518 18.2131 10.8762C18.7961 11.8054 19.3245 12.789 19.7617 13.8275H34.7004C37.9795 13.8275 40.949 12.4612 43.0623 10.275C38.9452 4.09911 31.9313 0.0366211 23.9701 0.0366211Z" fill="#FED10A"/>
  </symbol>
  <!-- / logo-elasticsearch -->

  <!-- logo-snowqueen -->
  <symbol id="logo-snowqueen" viewBox="0 0 319 28">
    <path d="M295.838 14.8788C296.492 14.8788 298.017 15.0205 298.017 17.4271C298.017 19.8337 296.565 19.9753 295.838 19.9753H291.192V14.8788H295.838ZM291.192 13.6048V12.26C291.192 10.278 291.845 9.85327 293.879 9.85327H295.257C295.911 9.85327 297.291 9.9948 297.291 11.7644C297.291 13.6756 295.911 13.6756 295.257 13.6756L291.192 13.6048ZM291.192 8.22531C288.506 8.22531 287.126 9.57019 287.126 12.1892V21.4617H298.381C299.833 21.4617 302.01 20.1168 302.01 17.4978C302.01 15.7991 301.139 14.6665 300.195 14.0295C300.849 13.5339 301.358 12.6846 301.358 11.4812C301.358 8.93314 299.179 8.15454 297.727 8.15454H291.192V8.22531Z" fill="#131313"/>
    <path d="M308.039 17.131C308.039 14.7244 309.418 14.5827 310.071 14.5827H314.138V19.6792H310.071C309.345 19.6792 308.039 19.6084 308.039 17.131ZM303.972 17.2725C303.972 19.9623 306.151 21.2364 307.603 21.2364H318.204V11.9639C318.204 9.27411 316.824 8 314.138 8H306.006V9.55719H311.451C313.485 9.55719 314.138 9.98194 314.138 11.9639V13.3086H307.603C306.078 13.3086 303.972 14.5827 303.972 17.2725Z" fill="#131313"/>
    <path d="M195.131 21.5324L185.982 12.1889L192.516 5.6062H189.613L183.295 12.0474V5.6062H180.826C179.519 5.6062 178.357 6.66787 178.357 8.01275V21.6031H180.826C182.206 21.6031 183.295 20.5413 183.295 19.1964V14.5247L189.902 21.6031H195.131V21.5324Z" fill="#131313"/>
    <path d="M244.286 17.5686C244.286 19.5506 243.633 19.9753 241.6 19.9753H238.913C236.881 19.9753 236.227 19.5506 236.227 17.5686V12.26C236.227 10.2781 236.881 9.8533 238.913 9.8533H241.6C243.633 9.8533 244.286 10.2781 244.286 12.26V17.5686ZM244.286 8.22534H236.155C233.468 8.22534 232.088 9.57022 232.088 12.1891V17.4979C232.088 20.1876 233.468 21.4617 236.155 21.4617H244.286C246.973 21.4617 248.353 20.1169 248.353 17.4979V12.1891C248.353 9.57022 246.973 8.22534 244.286 8.22534Z" fill="#131313"/>
    <path d="M207.836 17.5686C207.836 19.5506 207.182 19.9753 205.149 19.9753H202.463C200.429 19.9753 199.776 19.5506 199.776 17.5686V12.26C199.776 10.2781 200.429 9.8533 202.463 9.8533H205.149C207.182 9.8533 207.836 10.2781 207.836 12.26V17.5686ZM207.836 8.22534H199.703C197.018 8.22534 195.638 9.57022 195.638 12.1891V17.4979C195.638 20.1876 197.018 21.4617 199.703 21.4617H207.836C210.523 21.4617 211.902 20.1169 211.902 17.4979V12.1891C211.902 9.57022 210.596 8.22534 207.836 8.22534Z" fill="#131313"/>
    <path d="M223.665 14.8789H218.946V12.1891C218.946 10.2073 219.598 9.78256 221.632 9.78256H223.665C224.319 9.78256 225.699 9.9241 225.699 12.3308C225.699 14.8081 224.319 14.8789 223.665 14.8789ZM218.874 16.2238H226.061C227.514 16.2238 229.692 14.8789 229.692 12.26C229.692 9.57026 227.586 8.29614 226.061 8.29614H218.874C216.186 8.29614 214.807 9.64102 214.807 12.26V21.6033H216.84C217.929 21.6033 218.874 20.6832 218.874 19.6214V16.2238Z" fill="#131313"/>
    <path d="M256.339 8.22534C253.652 8.22534 252.273 9.57022 252.273 12.1891V18.8427C252.273 19.7629 251.692 19.9753 250.894 19.9753V21.5325H254.306C255.395 21.5325 256.267 20.6831 256.339 19.6213V12.26C256.339 10.2781 256.993 9.8533 259.025 9.8533H262.656V21.6033H264.689C265.778 21.6033 266.723 20.6831 266.723 19.6213V8.29611L256.339 8.22534Z" fill="#131313"/>
    <path d="M274.057 12.26C274.057 10.2781 274.71 9.85333 276.743 9.85333H278.994C279.648 9.85333 281.028 9.99487 281.028 12.4016C281.028 14.8081 279.648 14.9497 278.994 14.9497H274.057V12.26ZM281.535 16.2238C282.987 16.2238 285.166 14.8789 285.166 12.26C285.166 9.57026 282.987 8.29614 281.535 8.29614H274.057C271.37 8.29614 269.99 9.64102 269.99 12.26V17.5687C269.99 20.2584 271.37 21.5325 274.057 21.5325H283.06V19.9753H276.743C274.71 19.9753 274.057 19.5506 274.057 17.5687V16.2238H281.535Z" fill="#131313"/>
    <path d="M137.563 18.0542C137.563 15.6475 138.943 15.506 139.596 15.506H144.243V20.6023H139.596C138.943 20.6023 137.563 20.5315 137.563 18.0542ZM133.497 18.1958C133.497 20.8855 135.603 22.1596 137.128 22.1596H148.309V12.887C148.309 10.1972 146.93 8.9231 144.243 8.9231H135.53V10.4804H141.557C143.59 10.4804 144.243 10.905 144.243 12.887V14.2319H137.128C135.675 14.2319 133.497 15.506 133.497 18.1958Z" fill="#131313"/>
    <path d="M114.836 22.1596L107.212 14.3734L112.658 8.85229H110.262L104.961 14.1611V8.85229H102.929C101.839 8.85229 100.895 9.77257 100.895 10.8342V14.1611L95.5949 8.85229H93.1987L98.6445 14.3734L91.0205 22.1596H95.377L100.895 16.2138V22.1596H102.929C104.018 22.1596 104.961 21.2393 104.961 20.1777V16.2845L110.48 22.2304L114.836 22.1596Z" fill="#131313"/>
    <path d="M128.198 8.85229C127.108 8.85229 126.164 9.77257 126.164 10.8342V14.1611H119.847V8.85229H117.814C116.725 8.85229 115.781 9.77257 115.781 10.8342V22.1596H117.814C118.903 22.1596 119.847 21.2393 119.847 20.1777V15.5059H126.164V22.1596H128.198C129.359 22.1596 130.231 21.2393 130.231 20.1777V8.85229H128.198Z" fill="#131313"/>
    <path d="M70.6896 8.85229C69.6004 8.85229 68.6565 9.77257 68.6565 10.8342V14.1611H61.7586V8.85229H59.7255C58.6364 8.85229 57.6924 9.77257 57.6924 10.8342V22.1596H59.7255C60.8146 22.1596 61.7586 21.2393 61.7586 20.1777V15.5059H68.6565V22.1596H70.6896C71.7787 22.1596 72.7226 21.2393 72.7226 20.1777V8.85229H70.6896Z" fill="#131313"/>
    <path d="M49.3432 20.3191C46.9471 20.3191 46.0758 19.7528 46.0758 17.4169V11.0464C46.0758 8.63988 46.8745 8.14436 49.3432 8.14436H55.8054V6.30396H46.0758C42.8084 6.30396 41.2109 7.93205 41.2109 11.1172V17.4876C41.2109 20.6729 42.8084 22.3009 46.0758 22.3009H55.8054V20.4606H49.3432V20.3191Z" fill="#131313"/>
    <path d="M80.1291 12.887C80.1291 10.905 80.7824 10.4804 82.8155 10.4804H85.6473C86.3008 10.4804 87.6804 10.622 87.6804 13.0285C87.6804 15.4352 86.3008 15.5767 85.6473 15.5767H80.0564V12.887H80.1291ZM88.1161 16.8509C89.5682 16.8509 91.7466 15.506 91.7466 12.887C91.7466 10.1972 89.5682 8.9231 88.1161 8.9231H80.0564C77.3698 8.9231 75.9902 10.268 75.9902 12.887V18.1958C75.9902 20.8855 77.3698 22.1596 80.0564 22.1596H89.6409V20.6023H82.7429C80.7098 20.6023 80.0564 20.1777 80.0564 18.1958V16.8509H88.1161Z" fill="#131313"/>
    <path d="M162.251 15.5059H156.95C156.297 15.5059 154.917 15.3644 154.917 12.9577C154.917 10.5511 156.297 10.4096 156.95 10.4096H162.251V15.5059ZM154.409 8.85226C152.957 8.85226 150.778 10.1971 150.778 12.8161C150.778 15.5059 152.884 16.78 154.409 16.78H157.168L151.65 22.0888H155.498L160.653 16.78H162.323V22.0888H164.356C165.446 22.0888 166.389 21.1685 166.389 20.1069V8.78149H154.409V8.85226Z" fill="#131313"/>
    <path d="M17.6938 22.0934C13.7699 23.509 13.199 23.509 9.27507 22.0934C8.98958 17.8463 6.13582 13.3162 2.92524 10.6973C5.85033 11.2635 8.41888 12.3253 10.3453 14.4488C10.4166 11.4759 12.1288 7.58281 13.413 5.74247C14.6974 7.51203 16.4096 11.4759 16.4809 14.4488C18.4073 12.3253 21.0472 11.1928 23.9007 10.6973C20.8326 13.3162 17.9793 17.8463 17.6938 22.0934ZM24.8286 1H2.06905C0.927523 1 0 1.92018 0 3.05271V25.8448C0 26.9774 0.927523 27.8975 2.06905 27.8975H24.8286C25.9697 27.8975 26.8977 26.9774 26.8977 25.8448V3.05271C26.8977 1.92018 25.9697 1 24.8286 1Z" fill="#131313"/>
  </symbol>
  <!-- / logo-snowqueen -->

  <!-- icon-mail -->
  <symbol id="icon-mail" viewBox="0 0 20 20" fill="none">
    <path d="M3.33333 3.3335H16.6667C17.5833 3.3335 18.3333 4.0835 18.3333 5.00016V15.0002C18.3333 15.9168 17.5833 16.6668 16.6667 16.6668H3.33333C2.41666 16.6668 1.66666 15.9168 1.66666 15.0002V5.00016C1.66666 4.0835 2.41666 3.3335 3.33333 3.3335Z" stroke="#999999" stroke-linecap="round" stroke-linejoin="round"/>
    <path d="M18.3333 5L10 10.8333L1.66666 5" stroke="#999999" stroke-linecap="round" stroke-linejoin="round"/>
  </symbol>
  <!-- / icon-mail -->

  <!-- icon-phone -->
  <symbol id="icon-phone" viewBox="0 0 18 18" fill="none">
    <path d="M17.3335 13.0999V15.5999C17.3344 15.832 17.2869 16.0617 17.1939 16.2744C17.1009 16.487 16.9646 16.6779 16.7936 16.8348C16.6225 16.9917 16.4206 17.1112 16.2008 17.1855C15.9809 17.2599 15.748 17.2875 15.5168 17.2666C12.9525 16.988 10.4893 16.1117 8.32516 14.7083C6.31168 13.4288 4.60461 11.7217 3.32516 9.70825C1.91681 7.53426 1.04036 5.05908 0.766827 2.48325C0.746003 2.25281 0.77339 2.02055 0.847244 1.80127C0.921099 1.58199 1.0398 1.38049 1.1958 1.2096C1.35179 1.03871 1.54166 0.902176 1.75332 0.808686C1.96497 0.715197 2.19378 0.666803 2.42516 0.666585H4.92516C5.32958 0.662604 5.72165 0.805817 6.0283 1.06953C6.33494 1.33324 6.53522 1.69946 6.59183 2.09992C6.69735 2.89997 6.89304 3.68552 7.17516 4.44158C7.28728 4.73985 7.31155 5.06401 7.24508 5.37565C7.17862 5.68729 7.02421 5.97334 6.80016 6.19992L5.74183 7.25825C6.92812 9.34454 8.65554 11.072 10.7418 12.2583L11.8002 11.1999C12.0267 10.9759 12.3128 10.8215 12.6244 10.755C12.9361 10.6885 13.2602 10.7128 13.5585 10.8249C14.3146 11.107 15.1001 11.3027 15.9002 11.4083C16.305 11.4654 16.6747 11.6693 16.9389 11.9812C17.2032 12.2931 17.3436 12.6912 17.3335 13.0999Z" stroke="#999999" stroke-linecap="round" stroke-linejoin="round"/>
  </symbol>
  <!-- / icon-phone -->

  <!-- icon-facebook -->
  <symbol id="icon-facebook" viewBox="0 0 12 21" fill="none">
    <path d="M8.43511 4.76846H11.0126V0.960938H7.98271V0.974668C4.31141 1.10466 3.55891 3.16846 3.49261 5.33596H3.48501V7.23726H0.985107V10.966H3.48501V20.9609H7.25261V10.966H10.3388L10.935 7.23726H7.25381V6.08856C7.25381 5.35596 7.74131 4.76846 8.43511 4.76846Z" fill="#2E3646"/>
  </symbol>
  <!-- / icon-facebook -->

  <!-- icon-instagram -->
  <symbol id="icon-instagram" viewBox="0 0 20 20" fill="none">
    <path d="M14.0419 0H5.9581C2.6728 0 0 2.6728 0 5.9581V14.0419C0 17.3272 2.6728 20 5.9581 20H14.0419C17.3272 20 20 17.3272 20 14.0419V5.9581C20 2.6728 17.3272 0 14.0419 0ZM17.988 14.0419C17.988 16.2213 16.2213 17.988 14.0419 17.988H5.9581C3.7788 17.988 2.012 16.2213 2.012 14.0419V5.9581C2.012 3.7787 3.7788 2.012 5.9581 2.012H14.0419C16.2213 2.012 17.988 3.7787 17.988 5.9581V14.0419Z" fill="#2E3646"/>
    <path d="M10 4.82764C7.1477 4.82764 4.8273 7.14814 4.8273 10.0003C4.8273 12.8525 7.1477 15.173 10 15.173C12.8522 15.173 15.1727 12.8525 15.1727 10.0003C15.1727 7.14804 12.8522 4.82764 10 4.82764ZM10 13.161C8.2544 13.161 6.8393 11.7459 6.8393 10.0003C6.8393 8.25474 8.2544 6.83964 10 6.83964C11.7456 6.83964 13.1607 8.25474 13.1607 10.0003C13.1607 11.7459 11.7456 13.161 10 13.161Z" fill="#2E3646"/>
    <path d="M15.1827 6.10546C15.8673 6.10546 16.4222 5.55046 16.4222 4.86596C16.4222 4.18136 15.8673 3.62646 15.1827 3.62646C14.4982 3.62646 13.9432 4.18136 13.9432 4.86596C13.9432 5.55046 14.4982 6.10546 15.1827 6.10546Z" fill="#2E3646"/>
  </symbol>
  <!-- / icon-instagram -->

</svg>
